<svg version="1" xmlns="http://www.w3.org/2000/svg" width="682.667" height="682.667" viewBox="0 0 512.000000 512.000000"><path d="M122.8 145l-2.5.5 8.4 23c4.6 12.6 8.8 23.9 9.3 25 .9 2.2 5.7 15.5 18.5 51 4.7 13.2 9 24.9 9.5 26 .5 1.1 5.7 15.3 11.5 31.5 5.9 16.2 12.8 35.3 15.5 42.5 2.6 7.1 6.7 18.4 9 25 2.4 6.6 4.8 13.1 5.3 14.5.6 1.4 1.1 3 1.2 3.6.7 3.2 4.5 10.2 6.6 12.1 5.6 5.1 7.1 5.3 45.2 5l35.3-.2 4.2-2.7c5.2-3.5 7.9-8.2 13.7-24.3 2.5-7.1 6.1-17 8-22 1.8-4.9 9.7-26.6 17.5-48 7.8-21.5 15.3-41.9 16.7-45.5 1.4-3.6 2.6-7 2.8-7.5.1-.6.5-1.7.8-2.5.3-.8 3.6-9.8 7.3-20 3.6-10.2 7.5-20.8 8.4-23.5 1-2.8 6.6-18 12.4-33.9 5.9-15.9 10.4-29.1 10.2-29.3-.5-.6-67.5-.7-68-.2-.5.5-59.3 188.1-60 191.4-.1.5-1.5 5-3 10-1.5 4.9-3.1 10.1-3.5 11.5-.6 2-1.5 2.6-4.3 2.8l-3.5.3-2.7-9.8c-1.5-5.4-3.8-13.6-5.1-18.3-2.7-9.9-4.3-15.1-13.2-43-3.6-11.3-8.7-27.7-11.5-36.5-2.7-8.8-5.3-17.1-5.8-18.5-3.9-12.1-24.3-77.1-26-82.8-2-6.6-2.4-7.2-4.8-7.2-25.4-.4-61.4-.4-63.4 0z"/></svg>