<?xml version="1.0" standalone="no"?>
<!DOCTYPE svg PUBLIC "-//W3C//DTD SVG 20010904//EN"
 "http://www.w3.org/TR/2001/REC-SVG-20010904/DTD/svg10.dtd">
<svg version="1.0" xmlns="http://www.w3.org/2000/svg"
 width="1184.000000pt" height="1184.000000pt" viewBox="0 0 1184.000000 1184.000000"
 preserveAspectRatio="xMidYMid meet">
<metadata>
Created by potrace 1.11, written by Peter Selinger 2001-2013
</metadata>
<g transform="translate(0.000000,1184.000000) scale(0.100000,-0.100000)"
fill="#000000" stroke="none">
<path d="M1400 11600 l-240 -240 0 -5440 0 -5440 240 -240 240 -240 4280 0
4280 0 240 240 240 240 0 5440 0 5440 -240 240 -240 240 -4280 0 -4280 0 -240
-240z m305 -240 c4 7 12 7 25 0 13 -7 21 -7 25 0 4 7 12 7 25 0 12 -6 21 -7
25 0 3 6 15 6 30 0 15 -6 27 -6 30 1 4 5 13 6 22 0 9 -5 29 -5 45 -1 15 5 30
5 33 0 3 -5 16 -5 30 0 16 6 25 6 25 0 0 -6 9 -6 25 0 16 6 25 6 25 0 0 -5 9
-6 22 -1 13 4 35 5 50 0 16 -4 30 -3 33 2 4 5 14 5 23 1 17 -9 70 -7 79 2 3 3
16 1 29 -4 15 -6 24 -6 24 0 0 6 9 6 25 0 15 -6 25 -6 25 0 0 9 38 5 48 -4 2
-3 13 -1 23 5 13 6 19 6 19 0 0 -7 9 -7 25 -1 14 5 25 6 25 2 0 -4 18 -7 40
-7 22 0 40 3 40 7 0 4 11 3 25 -2 15 -6 26 -6 30 0 4 6 14 7 23 2 21 -9 43 -9
59 1 6 4 14 3 18 -3 4 -7 12 -7 26 0 13 8 19 7 19 0 0 -6 5 -8 10 -5 14 9 108
10 116 2 3 -3 17 -2 30 3 15 6 24 6 24 0 0 -6 9 -6 25 0 16 6 25 6 25 0 0 -5
9 -6 22 -1 13 4 35 5 50 0 16 -4 30 -3 33 2 4 5 13 5 24 0 10 -6 23 -6 31 -1
8 5 21 5 30 0 9 -5 22 -5 30 0 8 5 21 5 31 -1 11 -6 20 -5 24 1 4 6 13 7 24 1
10 -6 23 -6 31 -1 8 5 19 5 25 0 6 -5 17 -5 25 0 8 5 21 5 31 -1 11 -6 20 -5
24 1 4 7 12 7 25 0 13 -7 21 -7 25 0 4 6 13 7 24 1 10 -6 23 -6 31 -1 8 5 21
5 31 -1 11 -6 20 -5 24 1 4 7 12 7 23 1 10 -6 23 -6 34 0 10 6 19 5 23 -1 4
-6 13 -7 24 -1 10 6 23 6 31 1 8 -5 19 -5 25 0 6 5 17 5 24 1 8 -5 27 -5 42
-1 16 5 31 5 34 0 3 -5 16 -5 30 0 16 6 25 6 25 0 0 -6 9 -6 25 0 14 5 25 6
25 1 0 -10 26 -9 36 2 4 3 14 2 23 -2 9 -5 20 -8 26 -8 8 2 57 -181 69 -263 3
-14 7 -32 10 -40 3 -8 8 -26 10 -40 3 -14 8 -36 11 -50 4 -14 8 -34 10 -45 2
-11 26 -116 54 -234 28 -118 51 -223 51 -233 0 -10 5 -18 11 -18 5 0 8 -4 5
-9 -5 -8 34 -190 71 -331 8 -33 10 -39 17 -75 10 -50 44 -200 46 -200 1 0 3
-10 6 -22 2 -12 15 -70 29 -129 22 -93 31 -133 39 -181 1 -7 5 -16 9 -19 4 -4
7 -22 7 -41 0 -18 3 -33 8 -33 4 0 8 -13 9 -29 1 -15 11 -66 23 -112 11 -46
22 -94 25 -106 8 -36 12 -52 34 -145 11 -48 23 -98 25 -110 3 -13 7 -33 10
-45 18 -73 35 -148 42 -188 3 -16 9 -41 14 -55 5 -14 12 -37 14 -53 3 -15 7
-35 10 -45 3 -9 8 -29 11 -44 3 -16 8 -40 11 -55 3 -16 7 -32 8 -38 1 -5 5
-19 9 -30 3 -11 8 -37 12 -59 3 -21 8 -43 11 -48 3 -5 7 -19 9 -31 1 -12 17
-83 35 -157 17 -74 34 -144 36 -155 2 -11 7 -31 10 -45 3 -14 6 -30 8 -37 1
-7 5 -15 8 -19 4 -3 4 -12 2 -19 -3 -7 0 -16 5 -20 6 -3 9 -10 7 -14 -3 -4 3
-40 14 -79 10 -40 16 -72 14 -72 -3 0 0 -8 5 -17 5 -10 11 -31 14 -48 6 -32
14 -68 47 -210 12 -49 23 -103 26 -118 2 -16 6 -33 9 -38 6 -9 12 -31 20 -74
7 -40 15 -80 20 -100 2 -11 4 -22 4 -25 0 -3 7 -27 15 -55 12 -42 36 -144 42
-180 1 -5 3 -12 4 -15 1 -3 3 -13 5 -24 2 -10 9 -40 15 -66 6 -26 13 -56 15
-66 2 -11 4 -20 5 -21 5 -6 23 -101 20 -105 -1 -2 4 -16 10 -33 6 -16 20 -70
31 -120 11 -49 22 -99 24 -110 3 -11 7 -30 10 -42 11 -53 16 -71 30 -128 9
-33 18 -75 20 -94 3 -19 8 -37 10 -41 3 -4 12 -41 21 -81 8 -41 18 -83 21 -94
6 -26 22 -93 29 -125 2 -14 7 -33 10 -42 3 -9 7 -27 10 -40 2 -13 6 -32 9 -43
6 -24 24 -110 31 -144 3 -14 7 -28 9 -31 2 -4 7 -21 10 -39 3 -17 12 -60 21
-94 8 -34 17 -73 20 -87 2 -14 7 -36 10 -50 3 -14 6 -26 5 -27 0 -2 5 -17 10
-35 6 -18 12 -42 14 -53 2 -11 7 -33 10 -50 4 -16 8 -36 8 -42 0 -7 3 -13 6
-13 3 0 7 -10 7 -22 1 -21 8 -52 35 -163 5 -22 12 -53 15 -70 3 -16 9 -41 14
-55 5 -14 14 -52 21 -85 17 -89 27 -131 36 -155 4 -8 5 -19 4 -23 -1 -5 4 -27
10 -50 6 -23 14 -55 16 -72 3 -16 9 -38 14 -47 5 -10 8 -18 5 -18 -3 0 0 -15
5 -32 5 -18 12 -48 15 -67 3 -19 10 -45 15 -58 5 -13 6 -23 4 -23 -2 0 -1 -10
4 -23 5 -13 12 -39 15 -58 3 -19 12 -58 20 -86 8 -29 12 -53 9 -53 -3 0 -1 -6
4 -12 5 -7 10 -25 11 -39 2 -15 7 -40 11 -55 8 -29 8 -29 21 16 7 25 14 56 16
70 3 14 8 34 11 45 4 11 8 28 10 38 2 9 4 25 6 35 2 9 6 26 10 37 3 11 8 31
11 45 4 22 21 97 31 140 31 125 57 241 58 262 1 16 5 28 10 28 4 0 6 3 5 8 -1
4 6 41 16 83 9 42 19 84 21 95 2 10 4 21 5 24 1 3 2 8 1 13 0 4 2 7 6 7 5 0 8
10 9 23 1 28 11 75 30 152 9 33 18 69 20 80 2 11 7 34 11 50 4 17 7 32 8 35 1
3 4 19 8 35 4 17 9 39 12 50 2 11 11 46 18 78 8 31 12 57 10 57 -2 0 -1 6 3
12 5 7 9 19 10 28 4 24 14 69 35 155 10 44 21 89 24 100 2 11 14 58 25 105 11
47 23 95 25 108 10 49 15 70 35 157 12 50 23 99 25 110 3 11 14 56 24 100 11
44 22 94 25 110 3 17 10 45 16 64 5 19 8 37 5 39 -3 3 -1 10 4 16 5 6 12 25
14 41 3 17 8 41 12 55 3 14 8 38 11 54 2 16 7 32 9 36 2 3 6 17 9 31 3 13 8
35 11 49 3 14 9 39 12 55 7 40 8 43 20 90 6 22 19 76 28 120 9 44 21 94 26
110 4 17 10 41 13 55 2 14 9 43 14 65 6 22 13 51 16 65 3 14 7 34 10 45 29
124 38 163 39 178 1 9 5 17 10 17 4 0 6 4 3 9 -3 5 1 30 9 56 8 27 14 51 13
54 0 3 0 8 2 11 1 3 3 16 6 30 2 14 11 52 20 85 9 33 18 71 20 85 3 14 9 41
14 60 5 19 11 46 14 60 2 14 16 75 31 135 38 159 65 277 69 300 1 11 6 27 9
35 3 8 13 51 23 95 10 44 19 85 20 90 1 6 5 21 8 35 21 94 38 168 41 185 3 11
9 38 15 60 14 57 59 251 64 278 3 12 5 22 6 22 2 0 4 12 13 55 3 14 8 32 11
40 3 8 7 29 10 45 3 17 24 109 46 205 55 232 64 271 74 320 3 14 10 45 17 70
6 25 12 54 14 65 3 11 9 38 14 60 11 42 76 322 85 365 16 75 27 119 61 260 20
85 39 166 42 180 2 14 10 49 18 79 8 30 12 58 9 62 -2 4 0 10 5 13 5 3 12 27
17 53 8 51 10 62 14 66 1 1 4 15 6 31 3 16 19 83 35 149 17 65 28 122 25 125
-3 3 -2 10 3 16 9 11 13 24 27 91 5 28 24 107 28 125 3 8 5 18 5 22 2 11 35
15 59 6 12 -4 22 -4 22 0 0 8 74 6 96 -2 7 -3 16 -1 19 4 4 6 13 7 23 2 17 -9
70 -7 79 2 3 3 16 1 29 -4 15 -6 24 -6 24 0 0 6 9 6 25 0 15 -6 25 -6 25 0 0
9 38 5 48 -4 2 -3 13 -1 23 5 13 6 19 6 19 0 0 -7 9 -7 25 -1 14 5 25 6 25 2
0 -4 18 -7 40 -7 22 0 40 3 40 7 0 4 11 3 25 -2 15 -6 26 -6 30 0 4 6 14 7 23
2 21 -9 43 -9 59 1 6 4 14 3 18 -3 4 -7 12 -7 26 0 13 8 19 7 19 0 0 -6 5 -8
10 -5 14 9 108 10 116 2 3 -3 17 -2 30 3 15 6 24 6 24 0 0 -6 9 -6 25 0 16 6
25 6 25 0 0 -5 9 -6 22 -1 13 4 35 5 50 0 16 -4 30 -3 33 2 4 5 13 5 24 0 10
-6 23 -6 31 -1 8 5 21 5 30 0 9 -5 22 -5 30 0 8 5 21 5 31 -1 11 -6 20 -5 24
1 4 6 13 7 24 1 10 -6 23 -6 31 -1 8 5 19 5 25 0 6 -5 17 -5 25 0 8 5 21 5 31
-1 11 -6 20 -5 24 1 4 7 12 7 25 0 13 -7 21 -7 25 0 4 6 13 7 24 1 10 -6 23
-6 31 -1 8 5 21 5 31 -1 11 -6 20 -5 24 1 4 7 12 7 23 1 10 -6 23 -6 34 0 10
6 19 5 23 -1 4 -6 13 -7 24 -1 10 6 23 6 31 1 8 -5 19 -5 25 0 6 5 17 5 24 1
8 -5 27 -5 42 -1 16 5 31 5 34 0 3 -5 16 -5 30 0 16 6 25 6 25 0 0 -6 9 -6 25
0 16 6 25 6 25 0 0 -5 9 -6 22 -1 13 4 35 5 50 0 16 -4 30 -3 34 2 3 5 10 6
16 3 16 -10 50 -11 76 -2 13 4 22 4 22 -2 0 -6 9 -6 25 0 16 6 25 6 25 0 0 -6
10 -6 26 0 16 7 23 7 19 0 -4 -6 2 -7 17 -1 14 5 31 5 40 0 10 -5 19 -5 22 0
9 13 53 1 53 -15 0 -8 -3 -14 -7 -14 -3 0 -6 -8 -7 -17 -2 -22 -9 -50 -58
-213 -20 -69 -38 -133 -41 -142 -7 -29 -11 -45 -65 -228 -28 -96 -55 -188 -59
-205 -5 -16 -13 -45 -18 -62 -6 -18 -8 -33 -5 -33 3 0 1 -6 -4 -12 -6 -7 -16
-38 -24 -68 -7 -30 -14 -57 -14 -60 -1 -3 -5 -12 -8 -20 -3 -8 -13 -42 -22
-75 -10 -33 -23 -79 -31 -103 -8 -23 -13 -46 -12 -50 1 -4 -4 -20 -11 -37 -7
-16 -14 -37 -16 -45 -2 -8 -9 -35 -16 -60 -7 -25 -14 -49 -15 -55 -2 -5 -21
-73 -44 -150 -22 -77 -42 -148 -43 -157 0 -10 -5 -18 -9 -18 -4 0 -7 -3 -6 -7
3 -13 -14 -87 -24 -106 -5 -10 -11 -28 -14 -40 -4 -24 -63 -233 -71 -257 -4
-8 -7 -21 -9 -29 -1 -8 -9 -35 -17 -60 -8 -25 -38 -129 -67 -231 -28 -102 -55
-194 -60 -205 -7 -17 -17 -51 -25 -90 -5 -20 -57 -200 -63 -215 -3 -8 -6 -19
-7 -25 0 -5 -11 -41 -22 -80 -12 -38 -29 -95 -37 -125 -8 -30 -26 -93 -41
-140 -24 -80 -31 -105 -40 -140 -2 -8 -4 -17 -5 -20 -1 -3 -3 -9 -4 -15 -1 -5
-8 -30 -16 -55 -7 -25 -15 -49 -16 -55 -2 -5 -10 -35 -19 -65 -9 -30 -20 -68
-25 -85 -4 -16 -20 -70 -35 -120 -15 -49 -28 -98 -30 -108 -2 -10 -9 -32 -15
-50 -14 -43 -81 -275 -85 -295 -2 -10 -10 -37 -19 -61 -8 -25 -13 -48 -10 -53
3 -4 1 -8 -4 -8 -5 0 -9 -6 -9 -12 0 -7 -24 -94 -53 -193 -28 -99 -53 -187
-55 -195 -2 -8 -8 -28 -15 -45 -6 -16 -11 -31 -11 -32 2 -11 -13 -63 -18 -63
-3 0 -7 -10 -7 -22 -1 -19 -43 -169 -87 -308 -6 -19 -11 -39 -12 -45 -1 -5 -4
-17 -7 -25 -3 -8 -18 -60 -33 -115 -15 -55 -31 -111 -36 -125 -4 -14 -22 -74
-39 -135 -39 -137 -65 -227 -96 -328 -13 -43 -22 -83 -19 -88 4 -5 1 -9 -6 -9
-7 0 -10 -3 -7 -6 4 -3 0 -21 -8 -40 -8 -19 -11 -34 -8 -34 4 0 1 -6 -5 -13
-6 -8 -8 -17 -4 -20 3 -4 2 -7 -3 -7 -5 0 -10 -10 -10 -22 -1 -13 -14 -63 -29
-113 -15 -49 -29 -97 -30 -105 -2 -8 -4 -16 -4 -17 -1 -2 -1 -6 -2 -10 0 -5
-5 -14 -11 -20 -6 -7 -8 -13 -4 -13 3 0 1 -12 -5 -27 -6 -16 -13 -36 -15 -46
-2 -9 -6 -25 -8 -35 -2 -9 -16 -57 -31 -107 -15 -49 -34 -115 -41 -145 -8 -30
-18 -62 -21 -70 -3 -8 -7 -19 -8 -25 -2 -5 -9 -30 -16 -55 -7 -25 -13 -48 -15
-52 -1 -5 -2 -9 -4 -10 -1 -2 -3 -10 -5 -18 -3 -18 -38 -141 -62 -220 -9 -30
-18 -59 -20 -65 -17 -69 -37 -132 -44 -141 -5 -6 -6 -13 -4 -16 3 -3 1 -18 -6
-34 -6 -16 -12 -37 -15 -48 -2 -10 -11 -44 -20 -75 -10 -31 -18 -60 -20 -66
-1 -5 -14 -50 -29 -100 -14 -49 -35 -122 -46 -162 -10 -39 -24 -84 -30 -100
-6 -15 -11 -30 -11 -33 0 -3 -2 -9 -4 -15 -11 -36 -46 -164 -50 -184 -3 -13
-10 -34 -16 -45 -6 -12 -11 -23 -10 -26 1 -3 -3 -23 -9 -45 -6 -22 -11 -40
-10 -40 0 0 -11 -38 -25 -85 -35 -116 -74 -252 -78 -270 -2 -8 -12 -42 -22
-75 -10 -33 -19 -64 -20 -70 -7 -25 -74 -254 -84 -285 -6 -19 -13 -44 -15 -55
-2 -11 -20 -74 -40 -140 -19 -66 -37 -127 -39 -136 -2 -8 -11 -39 -20 -67 -8
-29 -16 -56 -17 -60 -4 -16 -7 -28 -14 -47 -4 -11 -9 -27 -10 -35 -4 -19 -5
-23 -60 -215 -26 -88 -49 -167 -52 -175 -9 -22 -9 -21 -18 -65 -4 -22 -14 -53
-22 -68 -8 -16 -12 -31 -9 -34 3 -3 -1 -22 -9 -42 -8 -20 -21 -63 -30 -96 -27
-101 -34 -113 -66 -117 -17 -3 -32 -1 -35 3 -2 5 -16 4 -29 -1 -16 -6 -25 -6
-25 0 0 6 -9 6 -25 0 -16 -6 -25 -6 -25 0 0 5 -9 6 -22 1 -13 -4 -35 -5 -50 0
-16 4 -30 3 -34 -2 -3 -5 -12 -6 -21 0 -9 4 -31 5 -49 1 -19 -4 -36 -4 -39 1
-3 4 -17 4 -30 -1 -16 -6 -25 -6 -25 0 0 6 -9 6 -25 0 -16 -6 -25 -6 -25 0 0
5 -9 6 -22 1 -13 -4 -35 -5 -50 0 -16 4 -30 3 -33 -2 -4 -5 -14 -5 -23 -1 -17
9 -70 7 -79 -2 -3 -3 -16 -1 -29 4 -15 6 -24 6 -24 0 0 -6 -9 -6 -25 0 -15 6
-25 6 -25 0 0 -9 -38 -5 -48 4 -2 3 -13 1 -23 -5 -13 -6 -19 -6 -19 0 0 7 -9
7 -25 1 -14 -5 -25 -6 -25 -2 0 4 -18 7 -40 7 -22 0 -40 -3 -40 -7 0 -4 -11
-3 -25 2 -15 6 -26 6 -30 0 -4 -6 -14 -7 -23 -2 -21 9 -43 9 -59 -1 -6 -4 -14
-3 -18 3 -4 7 -12 7 -26 0 -12 -7 -19 -7 -19 -1 0 6 -9 8 -22 3 -27 -9 -81 -8
-96 2 -6 3 -13 2 -17 -3 -3 -7 -15 -7 -30 -1 -16 6 -27 6 -31 -1 -4 -8 -9 -8
-17 0 -6 6 -16 7 -28 1 -12 -7 -20 -7 -24 0 -4 6 -12 7 -23 1 -9 -5 -26 -5
-39 0 -15 5 -23 5 -23 -2 0 -6 -6 -6 -17 -1 -17 9 -61 7 -71 -3 -2 -2 -15 0
-28 5 -15 6 -24 6 -24 0 0 -6 -9 -6 -25 0 -15 6 -25 6 -25 0 0 -9 -38 -5 -48
4 -2 3 -13 1 -23 -5 -13 -6 -19 -6 -19 0 0 7 -9 7 -25 1 -14 -5 -25 -6 -25 -2
0 4 -18 7 -40 7 -22 0 -40 -3 -40 -7 0 -4 -11 -3 -25 2 -15 6 -26 6 -30 0 -4
-6 -14 -7 -23 -2 -21 9 -43 9 -59 -1 -6 -4 -14 -3 -18 3 -4 7 -12 7 -26 0 -12
-7 -19 -7 -19 -1 0 7 -9 7 -26 1 -16 -7 -23 -7 -19 0 4 6 -2 7 -17 1 -20 -8
-44 -3 -66 14 -2 2 -61 205 -88 305 -8 30 -26 93 -40 140 -39 130 -56 193 -58
210 -1 8 -8 26 -16 40 -7 14 -12 26 -11 28 4 3 -10 65 -17 77 -3 5 -7 16 -8
25 -1 8 -18 71 -39 140 -38 131 -66 228 -69 245 -1 6 -5 15 -8 21 -4 6 -9 21
-11 35 -3 13 -11 44 -18 69 -7 25 -14 51 -16 58 -7 25 -10 37 -15 52 -10 29
-29 95 -33 115 -2 11 -4 20 -5 20 -2 0 -11 38 -12 53 -1 6 -4 12 -8 12 -4 0
-7 6 -7 13 -1 13 -22 93 -46 169 -8 27 -13 48 -11 48 2 0 -3 17 -11 38 -17 45
-52 167 -59 204 -2 14 -9 35 -15 47 -6 11 -10 24 -10 28 1 4 -1 15 -4 23 -4 8
-14 42 -23 75 -20 76 -45 166 -78 280 -15 50 -31 108 -37 130 -6 22 -15 51
-20 65 -4 14 -14 45 -20 70 -7 25 -13 47 -14 50 -1 3 -7 25 -14 50 -6 25 -16
56 -21 70 -5 14 -12 36 -15 50 -2 14 -11 48 -19 75 -9 28 -25 84 -37 125 -40
141 -56 195 -62 210 -3 8 -9 29 -13 45 -4 17 -9 36 -11 43 -1 6 -5 20 -7 30
-3 9 -5 17 -6 17 -1 0 -3 7 -5 15 -1 8 -17 65 -35 125 -18 61 -33 115 -34 120
-1 6 -10 37 -20 70 -10 33 -19 67 -21 75 -2 8 -10 35 -19 60 -9 25 -16 53 -16
63 0 9 -4 25 -9 35 -8 15 -48 150 -56 192 -2 8 -8 28 -14 43 -6 15 -10 31 -9
35 1 4 -1 14 -5 22 -7 19 -53 174 -63 215 -4 17 -8 35 -10 40 -2 6 -16 54 -33
108 -16 54 -29 99 -29 100 -1 1 -3 9 -5 17 -9 30 -29 104 -32 119 -2 9 -10 36
-18 61 -13 39 -95 326 -102 354 -1 6 -4 18 -7 26 -9 23 -37 121 -44 155 -4 17
-11 36 -17 43 -5 6 -7 12 -3 12 3 0 1 12 -5 28 -6 15 -12 36 -14 47 -6 35 -10
50 -16 60 -4 6 -10 24 -14 40 -4 17 -9 37 -11 45 -4 19 -25 91 -57 198 -14 45
-23 82 -20 82 2 0 1 6 -4 13 -4 6 -9 17 -10 22 -4 18 -23 84 -78 275 -22 77
-23 81 -34 120 -20 72 -51 181 -111 385 -33 116 -62 217 -64 225 -2 8 -18 63
-35 121 -17 58 -32 114 -34 125 -2 10 -9 32 -15 47 -7 16 -12 32 -12 37 0 4
-7 30 -15 56 -18 59 -84 287 -95 329 -4 17 -20 73 -35 125 -15 52 -29 102 -30
110 -2 8 -4 16 -5 18 -2 1 -4 7 -5 12 -1 6 -3 11 -5 13 -1 1 -3 9 -5 17 -1 8
-17 65 -35 125 -17 61 -35 124 -40 140 -13 51 -41 149 -47 165 -3 8 -8 23 -9
32 -4 16 -59 214 -70 248 -3 8 -5 16 -5 17 0 2 -5 17 -10 35 -10 31 -36 126
-44 158 -3 8 -18 60 -35 115 -16 55 -32 109 -34 120 -2 11 -11 43 -21 71 -9
28 -18 60 -20 70 -2 10 -4 19 -6 19 -1 0 -3 9 -5 20 -2 11 -13 52 -24 90 -27
86 -68 230 -120 415 -10 36 -29 101 -42 145 -13 44 -25 82 -25 85 -1 3 -7 25
-14 50 -7 25 -13 47 -14 50 -1 3 -7 25 -14 50 -7 25 -15 52 -16 60 -2 8 -4 16
-5 18 -2 1 -3 5 -4 10 -9 31 -30 104 -41 137 -8 22 -16 51 -18 65 -2 14 -6 32
-10 40 -20 54 -11 77 25 59 10 -6 19 -5 23 1z"/>
</g>
</svg>
