<?xml version="1.0" standalone="no"?>
<!DOCTYPE svg PUBLIC "-//W3C//DTD SVG 20010904//EN"
 "http://www.w3.org/TR/2001/REC-SVG-20010904/DTD/svg10.dtd">
<svg version="1.0" xmlns="http://www.w3.org/2000/svg"
 width="700.000000pt" height="700.000000pt" viewBox="0 0 700.000000 700.000000"
 preserveAspectRatio="xMidYMid meet">
<metadata>
Created by potrace 1.11, written by Peter Selinger 2001-2013
</metadata>
<g transform="translate(0.000000,700.000000) scale(0.100000,-0.100000)"
fill="#000000" stroke="none">
<path d="M3210 6299 c-921 -101 -1729 -639 -2167 -1444 -167 -306 -263 -602
-320 -977 -27 -176 -24 -577 6 -767 96 -624 382 -1183 823 -1607 449 -432 994
-692 1615 -770 170 -21 496 -21 666 0 580 73 1102 309 1530 691 411 367 712
859 845 1380 68 267 87 424 86 715 0 200 -5 272 -23 390 -94 615 -362 1151
-791 1580 -430 431 -960 698 -1580 795 -124 20 -559 29 -690 14z m1454 -1530
c112 -55 178 -156 184 -279 7 -138 -59 -250 -183 -311 -55 -27 -75 -31 -140
-31 -65 0 -85 4 -140 31 -231 114 -251 437 -35 570 68 42 104 51 190 47 56 -2
89 -9 124 -27z m-1679 -664 c17 -13 201 -191 410 -396 209 -206 397 -389 418
-406 32 -28 46 -33 89 -33 l51 0 176 173 c97 96 187 181 201 190 33 22 88 21
126 -2 40 -25 844 -862 867 -904 16 -28 17 -55 15 -230 l-3 -199 -37 -34 -38
-34 -1760 0 c-1642 0 -1762 1 -1787 17 -48 32 -53 62 -53 323 0 182 3 249 14
273 12 29 1126 1246 1165 1273 39 28 100 23 146 -11z"/>
</g>
</svg>
