<svg version="1" xmlns="http://www.w3.org/2000/svg" width="933.333" height="933.333" viewBox="0 0 700.000000 700.000000"><path d="M82 1.4c-1.9.6-5 1.9-6.8 2.9-3.7 2-11.2 9.4-11.2 11 0 .6-.6 1.8-1.3 2.6-.7.9-1.8 3.3-2.4 5.4-.8 2.7-1.2 55.9-1.3 184-.1 99.1-.2 245-.3 324.2l-.1 144 2.6 5.5c4.3 9.2 11.7 15.5 20.8 17.8 6.5 1.7 528.5 1.6 535 0 13.3-3.4 22.3-14.5 23.5-28.9.2-3.5.6-150.2.7-325.9l.3-319.5-2.2-4.7C635 10.4 628.8 4.7 619 1.3 614.1-.5 87.2-.4 82 1.4zm137.8 72.3c1.3 4.3 3.2 10.5 4.2 13.8 8 26.1 19 62.4 19.6 64.5.2.8 4.4 14.8 9.4 31 11.3 36.7 22.2 72.5 26 85 1.5 5.2 5.4 17.8 8.5 28 6 19.6 7.9 25.8 10 33 .7 2.5 4.9 16.2 9.3 30.5s8.2 26.9 8.5 28c.3 1.1 3.3 11 6.7 22 3.4 11 7 22.7 8 26 2.7 9.1 14.8 48.8 18.1 59.5 1.7 5.2 3.2 10.3 3.4 11.2 1.3 5.9 2.3 3.7 8.3-18.5 3.5-12.7 6.5-23.9 6.7-24.8.2-.9 2.4-9.1 4.9-18.3 2.5-9.3 4.8-17.8 5-19 .3-1.1 2-7.7 3.9-14.6 1.9-6.9 7.9-28.7 13.2-48.5 21.9-81.4 24.5-91.2 25.5-94.5.6-1.9 6.5-23.8 13.1-48.5 11.4-42.5 20.2-75.2 23.5-87.5 8.9-32.8 14-51.8 15.7-58.3l1.9-7.7H585.9l-1 3.2c-2 6.9-7 24.4-7.4 25.8-.2.8-1.3 4.9-2.5 9s-2.3 7.9-2.4 8.5c-.1.5-1 3.5-1.9 6.5-3.2 10.9-10.5 36.9-17.7 62.5-1.5 5.5-9.9 34.7-18.5 65-8.6 30.2-15.8 55.7-16 56.5-.2.8-5.4 19-11.5 40.5-6.1 21.4-14.9 52.5-19.6 69-4.7 16.5-10.8 37.9-13.6 47.5-2.7 9.6-7.4 26-10.3 36.5-3 10.4-8.6 30.2-12.5 44-4 13.7-7.3 25.7-7.5 26.5-.5 2-15 52.7-17.5 61.3l-2.1 6.7-69.1-.2-69.1-.3-2.2-7c-1.3-3.9-5.3-16.4-9-28-6.9-21.8-18.5-58.2-26-81.5-2.4-7.4-6.9-21.6-10-31.5-3.1-9.9-6.4-20-7.2-22.5-.8-2.5-4.6-14.4-8.5-26.5-6.8-21.4-8.8-27.9-18.1-57-12.4-38.6-27.2-85-29.7-93-1.6-5-3.5-11-4.4-13.5-.8-2.5-4-12.6-7.1-22.5-3.1-9.9-6-19.1-6.5-20.5-.9-2.7-6.4-19.9-16-50-3.4-10.7-8.1-25.6-10.5-33-2.4-7.4-7.4-23-11-34.5-10.4-32.6-14.7-45.9-15.2-46.8-.2-.4 25.1-.7 56.4-.7h56.8l2.3 7.7z"/></svg>