<svg id="Compact_Logo" data-name="Compact Logo" xmlns="http://www.w3.org/2000/svg" viewBox="0 0 60.5 75"><defs><style>.cls-1{fill:none;stroke:#fff;}</style></defs><title>INTV_Compactoutline</title><g id="V"><polygon class="cls-1" points="41.66 3.38 18.74 3.38 30.18 52.88 41.66 3.38"/><polygon class="cls-1" points="3.46 71.63 23.01 71.63 3.46 3.38 3.46 71.63"/><polygon class="cls-1" points="57.04 3.38 37.35 71.63 57.04 71.63 57.04 3.38"/><path class="cls-1" d="M56.5,3V71H3V3H56.5m0-3H3A3,3,0,0,0,0,3V71a3,3,0,0,0,3,3H56.5a3,3,0,0,0,3-3V3a3,3,0,0,0-3-3h0Z" transform="translate(0.5 0.5)"/></g></svg>