<?xml version="1.0" encoding="utf-8"?>
<!-- Generator: Adobe Illustrator 19.2.1, SVG Export Plug-In . SVG Version: 6.00 Build 0)  -->
<svg version="1.1" id="Compact_Logo" xmlns="http://www.w3.org/2000/svg" xmlns:xlink="http://www.w3.org/1999/xlink" x="0px"
	 y="0px" viewBox="0 0 60.5 75" style="enable-background:new 0 0 60.5 75;" xml:space="preserve">
<style type="text/css">
	.st0{fill:#FFFFFF;}
	.st1{fill:none;stroke:#FFFFFF;}
</style>
<title>INTV_Compactoutline</title>
<g id="V">
	<g>
		<path class="st0" d="M40.4,4.4L30.2,48.4L20,4.4H40.4 M41.7,3.4H18.7l11.4,49.5L41.7,3.4L41.7,3.4z"/>
	</g>
	<g>
		<path class="st0" d="M4.5,10.5l17.2,60.1H4.5V10.5 M3.5,3.4v68.3H23L3.5,3.4L3.5,3.4z"/>
	</g>
	<g>
		<path class="st0" d="M56,10.5v60.2H38.7L56,10.5 M57,3.4L37.3,71.6H57V3.4L57,3.4z"/>
	</g>
	<path class="st1" d="M57,3.5v68H3.5v-68H57 M57,0.5H3.5c-1.7,0-3,1.3-3,3v68c0,1.7,1.3,3,3,3H57c1.7,0,3-1.3,3-3v-68
		C60,1.8,58.7,0.5,57,0.5L57,0.5z"/>
</g>
</svg>
