<svg id="I_concept" data-name="I concept" xmlns="http://www.w3.org/2000/svg" viewBox="0 0 482.08 71.15"><defs><style>.cls-1{fill:#fff;stroke:#fff;}</style></defs><title>intv_logo</title><path class="cls-1" d="M14.28,69.69H0.5V1.44H14.28V69.69Z" transform="translate(0 0)"/><path class="cls-1" d="M73.58,69.69H59.8L39.64,24.92V69.69H25.86V1.44H39.64l20.2,44.81V1.44H73.58V69.69Z" transform="translate(0 0)"/><path class="cls-1" d="M127.49,12.92H110.61V69.69H96.78V12.92H80.19V1.44h47.3V12.92Z" transform="translate(0 0)"/><path class="cls-1" d="M170.66,40.15H149.19V58.24H174.6V69.68H135.41V1.44H174.5V12.92H149.19V29.05h21.47V40.16h0Z" transform="translate(0 0)"/><path class="cls-1" d="M358,44.75H351.2V69.69H337.44V1.44h22q10.36,0,16,5.37T381,22.06q0,13.59-9.89,19l12,27.94v0.66H368.33ZM351.2,33.27H359a7.25,7.25,0,0,0,6.2-2.71,11.91,11.91,0,0,0,2.06-7.34q0-10.27-8-10.27h-8.06V33.26h0Z" transform="translate(0 0)"/><path class="cls-1" d="M419.38,51.78q0-4.17-2.13-6.3t-7.76-4.43q-10.27-3.89-14.77-9.12a18.32,18.32,0,0,1-4.5-12.35,17.32,17.32,0,0,1,6.12-13.85Q402.46,0.5,411.88.5a23.27,23.27,0,0,1,11.2,2.65,18.38,18.38,0,0,1,7.57,7.48,22.43,22.43,0,0,1,2.65,11H419.56q0-4.78-2-7.29a7.14,7.14,0,0,0-5.88-2.51A7.37,7.37,0,0,0,406.06,14a8,8,0,0,0-2,5.74,7.07,7.07,0,0,0,2.25,5.09q2.25,2.27,8,4.71,10,3.61,14.51,8.86t4.52,13.36q0,8.91-5.67,13.92t-15.42,5a26.56,26.56,0,0,1-12-2.72,20.39,20.39,0,0,1-8.51-7.78,22.6,22.6,0,0,1-3.07-12H402.5q0,5.91,2.3,8.58t7.5,2.67Q419.38,59.42,419.38,51.78Z" transform="translate(0 0)"/><path class="cls-1" d="M477.64,40.15H456.17V58.24h25.41V69.68H442.39V1.44h39.09V12.92H456.17V29.05h21.47V40.16h0Z" transform="translate(0 0)"/><polygon class="cls-1" points="329.47 58.25 304.06 58.25 304.06 40.16 325.53 40.16 325.53 29.05 304.06 29.05 304.06 12.92 329.38 12.92 329.38 1.44 290.28 1.44 290.28 1.46 284.33 1.46 264.51 69.71 290.79 69.71 290.79 69.69 329.47 69.69 329.47 58.25"/><polygon class="cls-1" points="245.78 1.46 257.29 50.96 268.85 1.46 245.78 1.46"/><path class="cls-1" d="M212.86,1.46H182.54V69.71h13.8v-25h6.84l10.27,24.94H250L230.41,1.46H212.86Zm-2.5,29.1a7.25,7.25,0,0,1-6.19,2.74h-7.83V12.92h8.06q8,0,8,10.27A11.91,11.91,0,0,1,210.36,30.56Z" transform="translate(0 0)"/></svg>