<svg id="Compact_Logo" data-name="Compact Logo" xmlns="http://www.w3.org/2000/svg" viewBox="0 0 59.5 74"><defs><style>.cls-1{fill:#fff;}</style></defs><title>INTV_Compact</title><g id="V"><polygon class="cls-1" points="41.16 2.88 18.24 2.88 29.68 52.38 41.16 2.88"/><polygon class="cls-1" points="2.96 71.13 22.51 71.13 2.96 2.88 2.96 71.13"/><polygon class="cls-1" points="56.54 2.88 36.85 71.13 56.54 71.13 56.54 2.88"/><path class="cls-1" d="M73.25,12.5v68H19.75v-68h53.5m0-3H19.75a3,3,0,0,0-3,3v68a3,3,0,0,0,3,3h53.5a3,3,0,0,0,3-3v-68a3,3,0,0,0-3-3h0Z" transform="translate(-16.75 -9.5)"/></g></svg>