<svg id="I_concept" data-name="I concept" xmlns="http://www.w3.org/2000/svg" viewBox="0 0 482.08 71.13"><defs><style>.cls-1{fill:none;stroke:#fff;}</style></defs><title>intv_logo</title><path class="cls-1" d="M29.24,290.13H15.46V221.88H29.24v68.25Z" transform="translate(-14.96 -220.44)"/><path class="cls-1" d="M88.54,290.13H74.76L54.6,245.36v44.77H40.82V221.88H54.6l20.2,44.81V221.88H88.54v68.25Z" transform="translate(-14.96 -220.44)"/><path class="cls-1" d="M142.45,233.36H125.57v56.77H111.74V233.36H95.15V221.88h47.3v11.48Z" transform="translate(-14.96 -220.44)"/><path class="cls-1" d="M185.62,260.59H164.15v18.09h25.41v11.44H150.37V221.88h39.09v11.48H164.15v16.13h21.47v11.11Z" transform="translate(-14.96 -220.44)"/><path class="cls-1" d="M373,265.19h-6.84v24.94H352.4V221.88h22q10.36,0,16,5.37T396,242.5q0,13.59-9.89,19l12,27.94v0.66H383.29Zm-6.84-11.48H374A7.25,7.25,0,0,0,380.2,251a11.91,11.91,0,0,0,2.06-7.34q0-10.27-8-10.27h-8.06V253.7Z" transform="translate(-14.96 -220.44)"/><path class="cls-1" d="M434.34,272.22q0-4.17-2.13-6.3t-7.76-4.43q-10.27-3.89-14.77-9.12a18.32,18.32,0,0,1-4.5-12.35,17.32,17.32,0,0,1,6.12-13.85q6.12-5.23,15.54-5.23a23.27,23.27,0,0,1,11.2,2.65,18.38,18.38,0,0,1,7.57,7.48,22.43,22.43,0,0,1,2.65,11H434.52q0-4.78-2-7.29a7.14,7.14,0,0,0-5.88-2.51,7.37,7.37,0,0,0-5.62,2.13,8,8,0,0,0-2,5.74,7.07,7.07,0,0,0,2.25,5.09q2.25,2.27,8,4.71,10,3.61,14.51,8.86t4.52,13.36q0,8.91-5.67,13.92t-15.42,5a26.56,26.56,0,0,1-12-2.72,20.39,20.39,0,0,1-8.51-7.78,22.6,22.6,0,0,1-3.07-12h13.83q0,5.91,2.3,8.58t7.5,2.67Q434.34,279.86,434.34,272.22Z" transform="translate(-14.96 -220.44)"/><path class="cls-1" d="M492.6,260.59H471.13v18.09h25.41v11.44H457.35V221.88h39.09v11.48H471.13v16.13H492.6v11.11Z" transform="translate(-14.96 -220.44)"/><polygon class="cls-1" points="329.47 58.25 304.06 58.25 304.06 40.16 325.53 40.16 325.53 29.05 304.06 29.05 304.06 12.92 329.38 12.92 329.38 1.44 290.28 1.44 290.28 1.46 284.33 1.46 264.51 69.71 290.79 69.71 290.79 69.69 329.47 69.69 329.47 58.25"/><polygon class="cls-1" points="245.78 1.46 257.29 50.96 268.85 1.46 245.78 1.46"/><path class="cls-1" d="M227.82,221.9h-7.61l-0.71,0h-22v68.25H211.3V265.19h6.84l10.27,24.94h0v0H265L245.37,221.9H227.82ZM225.32,251a7.25,7.25,0,0,1-6.19,2.74H211.3V233.36h8.06q8,0,8,10.27A11.91,11.91,0,0,1,225.32,251Z" transform="translate(-14.96 -220.44)"/></svg>