<svg xmlns="http://www.w3.org/2000/svg" viewBox="0 0 59.5 74"><title>INTV_Compact</title><polygon points="18.24 1.63 18.24 2.88 29.68 52.38 41.16 2.88 41.16 1.63 18.24 1.63" fill="#fff"/><path d="M73.25,12.5v68H19.75v-68h53.5m0-3H19.75a3,3,0,0,0-3,3v68a3,3,0,0,0,3,3h53.5a3,3,0,0,0,3-3v-68a3,3,0,0,0-3-3Z" transform="translate(-16.75 -9.5)" fill="#fff"/><polygon points="56.54 2.88 36.85 71.13 36.85 72.33 58 72.33 58 71.13 58 2.88 56.54 2.88" fill="#fff"/><polygon points="2.96 2.88 1.42 2.88 1.42 71.13 1.42 72.33 22.51 72.33 22.51 71.13 2.96 2.88" fill="#fff"/></svg>