<?xml version="1.0" encoding="UTF-8" standalone="no"?>
<!-- Created with Inkscape (http://www.inkscape.org/) -->

<svg
   xmlns:dc="http://purl.org/dc/elements/1.1/"
   xmlns:cc="http://creativecommons.org/ns#"
   xmlns:rdf="http://www.w3.org/1999/02/22-rdf-syntax-ns#"
   xmlns:svg="http://www.w3.org/2000/svg"
   xmlns="http://www.w3.org/2000/svg"
   xmlns:sodipodi="http://sodipodi.sourceforge.net/DTD/sodipodi-0.dtd"
   xmlns:inkscape="http://www.inkscape.org/namespaces/inkscape"
   preserveAspectRatio="xMidYMid meet"
   viewBox="0 0 592.96615 177.76683"
   id="svg4680"
   version="1.1"
   inkscape:version="0.91 r"
   sodipodi:docname="muki-small-icon-lines.svg">
  <defs
     id="defs4682" />
  <sodipodi:namedview
     id="base"
     pagecolor="#ffffff"
     bordercolor="#666666"
     borderopacity="1.0"
     inkscape:pageopacity="0.0"
     inkscape:pageshadow="2"
     inkscape:zoom="1.4142136"
     inkscape:cx="233.21504"
     inkscape:cy="83.113783"
     inkscape:document-units="px"
     inkscape:current-layer="layer1"
     showgrid="false"
     inkscape:window-width="1405"
     inkscape:window-height="871"
     inkscape:window-x="2286"
     inkscape:window-y="59"
     inkscape:window-maximized="0"
     fit-margin-top="0"
     fit-margin-left="0"
     fit-margin-right="0"
     fit-margin-bottom="0"
     showguides="true"
     inkscape:guide-bbox="true">
    <sodipodi:guide
       position="133.10139,108.93599"
       orientation="-0.2594565,-0.9657548"
       id="guide4172" />
  </sodipodi:namedview>
  <metadata
     id="metadata4685">
    <rdf:RDF>
      <cc:Work
         rdf:about="">
        <dc:format>image/svg+xml</dc:format>
        <dc:type
           rdf:resource="http://purl.org/dc/dcmitype/StillImage" />
        <dc:title></dc:title>
      </cc:Work>
    </rdf:RDF>
  </metadata>
  <g
     inkscape:label="Layer 1"
     inkscape:groupmode="layer"
     id="layer1"
     transform="translate(-557.75217,-1404.0052)">
    <rect
       y="1200.6205"
       x="959.46594"
       height="15.824676"
       width="7.2082133"
       id="rect5411"
       style="opacity:1;fill:none;fill-opacity:1;stroke:#ffffff;stroke-width:0.99414426;stroke-opacity:1"
       transform="matrix(0.96676104,0.25568161,-0.26198938,0.96507076,0,0)" />
    <path
       style="opacity:1;fill:none;fill-opacity:1;fill-rule:evenodd;stroke:#cccccc;stroke-width:0.461;stroke-linecap:round;stroke-linejoin:miter;stroke-opacity:1;stroke-miterlimit:4;stroke-dasharray:none"
       d="m 604.23008,1450.2253 -15.98158,58.6987 c 0,0 -22.80669,-6.7572 -26.92921,-33.1189 z"
       id="path5429"
       inkscape:connector-curvature="0"
       sodipodi:nodetypes="cccc" />
    <path
       style="fill:none;fill-opacity:1;fill-rule:evenodd;stroke:#ffffff;stroke-width:1px;stroke-linecap:butt;stroke-linejoin:miter;stroke-opacity:1"
       d="m 557.75217,1437.4831 93.00337,24.9557 c 0,0 0.36496,-31.897 -38.46445,-42.3013 -38.8294,-10.4044 -54.53891,17.3456 -54.53891,17.3456 z"
       id="path5413"
       inkscape:connector-curvature="0"
       sodipodi:nodetypes="cczcc" />
    <path
       sodipodi:nodetypes="cccc"
       inkscape:connector-curvature="0"
       id="path5431"
       d="m 604.10486,1450.1917 -15.73042,58.7761 c 0,0 23.35127,5.6008 40.10235,-15.1679 z"
       style="opacity:1;fill:none;fill-opacity:1;fill-rule:evenodd;stroke:#cccccc;stroke-width:0.461;stroke-linecap:round;stroke-linejoin:miter;stroke-opacity:1;stroke-miterlimit:4;stroke-dasharray:none" />
    <path
       style="fill:none;fill-opacity:1;fill-rule:evenodd;stroke:#ffffff;stroke-width:0.95210189;stroke-linecap:butt;stroke-linejoin:miter;stroke-opacity:1"
       d="m 564.11096,1439.0992 80.33263,21.5484 c -15.91587,59.3988 -55.96557,48.3379 -55.96557,48.3379 0,0 -40.2609,-10.5697 -24.36707,-69.8863 z"
       id="path5415"
       inkscape:connector-curvature="0"
       sodipodi:nodetypes="ccccc" />
    <path
       sodipodi:nodetypes="cccc"
       inkscape:connector-curvature="0"
       id="path5433"
       d="m 588.25329,1508.5458 15.82821,-58.7114 -33.39161,-9.0009 z"
       style="opacity:1;fill:none;fill-opacity:1;fill-rule:evenodd;stroke:#cccccc;stroke-width:0.461;stroke-linecap:round;stroke-linejoin:miter;stroke-miterlimit:4;stroke-dasharray:none;stroke-opacity:1" />
    <path
       style="opacity:1;fill:none;fill-opacity:1;fill-rule:evenodd;stroke:#cccccc;stroke-width:0.461;stroke-linecap:round;stroke-linejoin:miter;stroke-miterlimit:4;stroke-dasharray:none;stroke-opacity:1"
       d="m 588.44843,1508.5419 15.93221,-58.4339 33.41345,8.9194 z"
       id="path5435"
       inkscape:connector-curvature="0"
       sodipodi:nodetypes="cccc" />
    <g
       style="font-style:normal;font-weight:normal;font-size:214.66920471px;line-height:125%;font-family:Sans;letter-spacing:0px;word-spacing:0px;fill:none;fill-opacity:1;stroke:#ffffff;stroke-width:1px;stroke-linecap:butt;stroke-linejoin:miter;stroke-opacity:1"
       id="text5441">
      <path
         d="m 735.96039,1465.78 q 8.80144,0 17.38821,1.5027 8.58676,1.288 15.88552,5.5814 5.5814,-2.7907 13.09482,-4.9374 7.51342,-2.1467 16.95887,-2.1467 8.37209,0 17.17353,1.7173 9.01611,1.5027 16.10019,6.6548 7.29875,5.152 11.80681,14.8121 4.72272,9.6602 4.72272,25.5457 l 0,64.1861 q -5.5814,1.0733 -10.08945,1.288 -4.50806,0.4293 -7.94276,0.4293 -3.64938,0 -8.15743,-0.4293 -4.50806,-0.2147 -10.08945,-1.288 l 0,-60.3221 q 0,-11.3774 -3.86405,-16.3148 -3.86405,-4.9374 -12.66548,-4.9374 -3.00537,0 -6.01074,0.644 -2.7907,0.644 -3.86405,1.0733 1.93203,7.5135 1.93203,17.1736 l 0,62.6834 q -5.5814,1.0733 -10.08946,1.288 -4.50805,0.4293 -7.94276,0.4293 -3.64937,0 -8.15743,-0.4293 -4.50805,-0.2147 -10.08945,-1.288 l 0,-60.3221 q 0,-11.3774 -3.64938,-16.3148 -3.64937,-4.9374 -12.45081,-4.9374 -2.36136,0 -5.15206,0.4293 -2.57603,0.4294 -3.22004,0.8587 l 0,80.2863 q -5.5814,1.0733 -10.08945,1.288 -4.50806,0.4293 -7.94276,0.4293 -3.64938,0 -8.15743,-0.4293 -4.50806,-0.2147 -10.08945,-1.288 l 0,-105.4026 q 7.51342,-2.576 18.03221,-4.9374 10.51879,-2.576 26.61898,-2.576 z"
         style="font-style:normal;font-variant:normal;font-weight:normal;font-stretch:normal;font-family:'Aller Display';-inkscape-font-specification:'Aller Display';fill:none;stroke:#ffffff"
         id="path4265"
         inkscape:connector-curvature="0" />
      <path
         d="m 969.26222,1573.7586 q -3.64938,1.288 -8.80144,2.576 -4.93739,1.288 -10.73346,2.576 -5.5814,1.0734 -11.59214,1.7174 -6.01074,0.644 -11.80681,0.644 -10.94812,0 -21.03758,-1.7173 -10.08945,-1.7174 -17.81754,-6.8695 -7.51342,-5.3667 -12.02148,-15.2415 -4.50805,-10.0894 -4.50805,-26.8336 l 0,-62.6834 q 4.72272,-1.0734 9.23078,-1.5027 4.72272,-0.4294 9.0161,-0.4294 4.07872,0 8.80144,0.4294 4.72272,0.4293 9.23078,1.5027 l 0,59.678 q 0,12.8802 4.29338,17.6029 4.29338,4.7227 13.09482,4.7227 3.64938,0 5.5814,-0.2147 1.93202,-0.2146 2.7907,-0.4293 l 0,-81.3596 q 4.72272,-1.0734 9.23078,-1.5027 4.72272,-0.4294 9.0161,-0.4294 4.07872,0 8.80144,0.4294 4.72272,0.4293 9.23078,1.5027 l 0,105.8319 z"
         style="font-style:normal;font-variant:normal;font-weight:normal;font-stretch:normal;font-family:'Aller Display';-inkscape-font-specification:'Aller Display';fill:none;stroke:#ffffff"
         id="path4267"
         inkscape:connector-curvature="0" />
      <path
         d="m 993.18777,1467.9267 q 4.72272,-1.0734 9.23073,-1.5027 4.7228,-0.4294 9.0161,-0.4294 4.0788,0 8.8015,0.4294 4.7227,0.4293 9.2308,1.5027 l 0,110.5546 q -5.5814,1.0734 -10.0895,1.288 -4.508,0.4294 -7.9428,0.4294 -3.6493,0 -8.1574,-0.4294 -4.50803,-0.2146 -10.08943,-1.288 l 0,-110.5546 z m 65.04473,0 q 3.8641,-0.8587 9.4455,-1.288 5.5814,-0.4294 9.8748,-0.4294 5.5814,0 11.1628,0.4294 5.796,0.4293 9.2307,1.288 l -26.6189,51.5206 29.6243,59.034 q -3.864,0.8587 -9.6601,1.288 -5.7961,0.4294 -10.0895,0.4294 -5.5814,0 -11.1628,-0.4294 -5.3667,-0.4293 -8.5867,-1.288 l -28.551,-57.5313 25.3309,-53.0233 z"
         style="font-style:normal;font-variant:normal;font-weight:normal;font-stretch:normal;font-family:'Aller Display';-inkscape-font-specification:'Aller Display';fill:none;stroke:#ffffff"
         id="path4269"
         inkscape:connector-curvature="0" />
      <path
         d="m 1150.2183,1578.696 q -5.5814,0.8587 -10.0895,1.288 -4.508,0.4293 -8.1574,0.4293 -3.6494,0 -8.1574,-0.4293 -4.5081,-0.4293 -9.8748,-1.288 l 0,-110.7693 q 4.7227,-1.0734 9.2308,-1.5027 4.7227,-0.4294 9.0161,-0.4294 4.0787,0 8.8014,0.4294 4.7227,0.4293 9.2308,1.5027 l 0,110.7693 z"
         style="font-style:normal;font-variant:normal;font-weight:normal;font-stretch:normal;font-family:'Aller Display';-inkscape-font-specification:'Aller Display';fill:none;stroke:#ffffff"
         id="path4271"
         inkscape:connector-curvature="0" />
    </g>
    <path
       style="fill:none;fill-rule:evenodd;stroke:#ffffff;stroke-width:1px;stroke-linecap:butt;stroke-linejoin:miter;stroke-opacity:1"
       d="m 612.19939,1419.8446 -23.92854,89.3025"
       id="path4338"
       inkscape:connector-curvature="0" />
  </g>
</svg>
