<svg xmlns="http://www.w3.org/2000/svg" viewBox="0 0 222.5 26.01"><title>logo_mi_white</title><path d="M35,7.54v2.79A6.35,6.35,0,0,1,37.49,8a6.58,6.58,0,0,1,3.17-.78c2.71,0,4.42,1.11,5.15,3.33a6.48,6.48,0,0,1,2.46-2.47,6.81,6.81,0,0,1,3.39-.86q5.52,0,5.63,6V24.7h-1.9V13.4a5.14,5.14,0,0,0-1-3.41,4,4,0,0,0-3.18-1.11,5.07,5.07,0,0,0-3.46,1.32,4.7,4.7,0,0,0-1.57,3.15V24.7h-1.9V13.25a4.71,4.71,0,0,0-1-3.29A4.14,4.14,0,0,0,40,8.88a4.82,4.82,0,0,0-3.08,1,6.05,6.05,0,0,0-1.9,3V24.7h-1.9V7.54Z" transform="translate(0 0)" style="fill:#fff"/><path d="M72.93,24.7a8.81,8.81,0,0,1-.36-2.39,6.65,6.65,0,0,1-2.55,2,7.74,7.74,0,0,1-3.28.7,5.74,5.74,0,0,1-4-1.38,4.52,4.52,0,0,1-1.53-3.49,4.6,4.6,0,0,1,2.09-4A10,10,0,0,1,69,14.73h3.44v-2a3.74,3.74,0,0,0-1.13-2.89,4.71,4.71,0,0,0-3.31-1,5.14,5.14,0,0,0-3.28,1,3,3,0,0,0-1.3,2.44h-1.9a4.4,4.4,0,0,1,1.9-3.54,7.36,7.36,0,0,1,4.68-1.5,6.67,6.67,0,0,1,4.53,1.44,5.16,5.16,0,0,1,1.71,4V20.8a10.07,10.07,0,0,0,.52,3.73v.19Zm-6-1.36a6.35,6.35,0,0,0,3.4-.92A5.39,5.39,0,0,0,72.55,20V16.19H69.16a8.48,8.48,0,0,0-4.44,1A3.13,3.13,0,0,0,63,20a3,3,0,0,0,1.07,2.39A4,4,0,0,0,66.93,23.34Z" transform="translate(0 0)" style="fill:#fff"/><path d="M85.84,23.42a5,5,0,0,0,3.32-1.12,3.92,3.92,0,0,0,1.45-2.89h1.82a5.37,5.37,0,0,1-1,2.86,6.14,6.14,0,0,1-2.4,2,7.15,7.15,0,0,1-3.21.73,6.62,6.62,0,0,1-5.35-2.35,9.51,9.51,0,0,1-2-6.31v-.57a10.69,10.69,0,0,1,.89-4.49,6.83,6.83,0,0,1,2.55-3,7,7,0,0,1,3.88-1.06,6.63,6.63,0,0,1,4.69,1.69,6.11,6.11,0,0,1,2,4.42H90.62a4.59,4.59,0,0,0-4.68-4.49h-.11a4.72,4.72,0,0,0-4,1.86,8.42,8.42,0,0,0-1.42,5.2v.55a8.17,8.17,0,0,0,1.42,5.12A4.74,4.74,0,0,0,85.84,23.42Z" transform="translate(0 0)" style="fill:#fff"/><path d="M96,23.56a1.32,1.32,0,0,1,.36-.94,1.36,1.36,0,0,1,2.36.94,1.24,1.24,0,0,1-.36.91,1.57,1.57,0,0,1-2,0A1.24,1.24,0,0,1,96,23.56Z" transform="translate(0 0)" style="fill:#fff"/><path d="M103.88,2.59a1.27,1.27,0,0,1,.35-.91,1.25,1.25,0,0,1,1-.37,1.26,1.26,0,0,1,1.36,1.13v.15a1.21,1.21,0,0,1-.36.9,1.57,1.57,0,0,1-2,0A1.26,1.26,0,0,1,103.88,2.59ZM106,24.7h-1.9V7.54H106Z" transform="translate(0 0)" style="fill:#fff"/><path d="M113,7.54l.06,2.93A6.72,6.72,0,0,1,115.55,8a6.26,6.26,0,0,1,3.19-.83,5.18,5.18,0,0,1,4.11,1.55,7,7,0,0,1,1.36,4.66V24.7h-1.89V13.43a5.25,5.25,0,0,0-1-3.43,3.82,3.82,0,0,0-3.07-1.13,4.85,4.85,0,0,0-3.12,1.1,6.45,6.45,0,0,0-2,3V24.7h-1.89V7.54Z" transform="translate(0 0)" style="fill:#fff"/><path d="M130.47,24.7V9.1h-2.84V7.54h2.84V5.47a5.61,5.61,0,0,1,1.34-4A4.89,4.89,0,0,1,135.55,0a7.48,7.48,0,0,1,2,.27l-.14,1.57a7.23,7.23,0,0,0-1.73-.19,3.08,3.08,0,0,0-2.44,1,4,4,0,0,0-.87,2.77V7.54h4.09V9.1h-4.08V24.7Z" transform="translate(0 0)" style="fill:#fff"/><path d="M138.82,15.87a10.13,10.13,0,0,1,1-4.46,7.21,7.21,0,0,1,6.68-4.19A7.05,7.05,0,0,1,152,9.62a9.22,9.22,0,0,1,2.1,6.39v.4a10.22,10.22,0,0,1-1,4.48,7.17,7.17,0,0,1-2.7,3.07,7.41,7.41,0,0,1-4,1.08,7.07,7.07,0,0,1-5.54-2.4,9.27,9.27,0,0,1-2.13-6.37Zm1.9.52a7.79,7.79,0,0,0,1.59,5.05,5.39,5.39,0,0,0,7.59.75,5.32,5.32,0,0,0,.75-.75,8,8,0,0,0,1.59-5.21v-.36a8.72,8.72,0,0,0-.73-3.6,5.91,5.91,0,0,0-2-2.53,5.24,5.24,0,0,0-3-.9,5.08,5.08,0,0,0-4.14,2,8.06,8.06,0,0,0-1.6,5.21Z" transform="translate(0 0)" style="fill:#fff"/><path d="M166,9.16A6.88,6.88,0,0,0,164.7,9a4.59,4.59,0,0,0-3,1A5.44,5.44,0,0,0,160,12.89V24.7H158V7.54h1.86v2.73a5,5,0,0,1,4.84-3,3.13,3.13,0,0,1,1.25.21Z" transform="translate(0 0)" style="fill:#fff"/><path d="M170.71,7.54l.06,2.79A6.38,6.38,0,0,1,173.15,8a6.58,6.58,0,0,1,3.17-.78c2.71,0,4.42,1.11,5.15,3.33a6.48,6.48,0,0,1,2.46-2.47,6.81,6.81,0,0,1,3.39-.86q5.52,0,5.63,6V24.7H191V13.4A5.1,5.1,0,0,0,190,10a4,4,0,0,0-3.18-1.11,5.07,5.07,0,0,0-3.46,1.32,4.7,4.7,0,0,0-1.57,3.15V24.7h-1.9V13.25a4.71,4.71,0,0,0-1-3.29,4.11,4.11,0,0,0-3.15-1.09,4.82,4.82,0,0,0-3.08,1,6.05,6.05,0,0,0-1.9,3V24.7h-1.9V7.54Z" transform="translate(0 0)" style="fill:#fff"/><path d="M204.41,25a7.36,7.36,0,0,1-6.75-4.08,9.39,9.39,0,0,1-1-4.32v-.68a10.13,10.13,0,0,1,1-4.46,7.68,7.68,0,0,1,2.67-3.12A6.55,6.55,0,0,1,204,7.23a6.19,6.19,0,0,1,5,2.13,8.65,8.65,0,0,1,1.83,5.83v1.06h-12.3v.36a7.18,7.18,0,0,0,1.67,4.86,5.3,5.3,0,0,0,4.21,1.94,6.07,6.07,0,0,0,2.69-.56,6,6,0,0,0,2.12-1.78l1.19.9A6.92,6.92,0,0,1,204.41,25ZM204,8.84a4.77,4.77,0,0,0-3.61,1.57,7.28,7.28,0,0,0-1.78,4.22h10.29v-.21a6.26,6.26,0,0,0-1.41-4A4.36,4.36,0,0,0,204,8.84Z" transform="translate(0 0)" style="fill:#fff"/><path d="M222.48,9.16A7,7,0,0,0,221.19,9a4.64,4.64,0,0,0-3,1,5.44,5.44,0,0,0-1.75,2.88V24.7h-1.89V7.54h1.86v2.73a5,5,0,0,1,4.84-3,3.13,3.13,0,0,1,1.25.21Z" transform="translate(0 0)" style="fill:#fff"/><path d="M12.5,0a12.5,12.5,0,1,0,6.21,23.35c2,1,3.07,1.38,5.49,2.65-.74-2.44-1-3.9-1.54-6.06A13,13,0,0,0,25,12.53,12.52,12.52,0,0,0,12.5,0Zm0,22.5a10,10,0,1,1,10-10h0A10,10,0,0,1,12.5,22.51Z" transform="translate(0 0)" style="fill:#fff"/><circle cx="12.54" cy="12.43" r="3.1" style="fill:#fff"/></svg>