<svg id="I_concept" data-name="I concept" xmlns="http://www.w3.org/2000/svg" viewBox="0 0 481.08 209.9"><defs><style>.cls-1{fill:#fff;}.cls-2{fill:#398bcb;}</style></defs><title>INTV-Logo-Modpack3</title><g id="interverse"><path class="cls-1" d="M29.24,236.13H15.46V167.88H29.24v68.25Z" transform="translate(-15.46 -166.94)"/><path class="cls-1" d="M88.54,236.13H74.76L54.6,191.36v44.77H40.82V167.88H54.6l20.2,44.81V167.88H88.54v68.25Z" transform="translate(-15.46 -166.94)"/><path class="cls-1" d="M142.45,179.36H125.57v56.77H111.74V179.36H95.15V167.88h47.3v11.48Z" transform="translate(-15.46 -166.94)"/><path class="cls-1" d="M185.62,206.59H164.15v18.09h25.41v11.44H150.37V167.88h39.09v11.48H164.15v16.13h21.47v11.11Z" transform="translate(-15.46 -166.94)"/><path class="cls-1" d="M373,211.19h-6.84v24.94H352.4V167.88h22q10.36,0,16,5.37T396,188.5q0,13.59-9.89,19l12,27.94v0.66H383.29Zm-6.84-11.48H374A7.25,7.25,0,0,0,380.2,197a11.91,11.91,0,0,0,2.06-7.34q0-10.27-8-10.27h-8.06V199.7Z" transform="translate(-15.46 -166.94)"/><path class="cls-1" d="M434.34,218.22q0-4.17-2.13-6.3t-7.76-4.43q-10.27-3.89-14.77-9.12a18.32,18.32,0,0,1-4.5-12.35,17.32,17.32,0,0,1,6.12-13.85q6.12-5.23,15.54-5.23a23.27,23.27,0,0,1,11.2,2.65,18.38,18.38,0,0,1,7.57,7.48,22.43,22.43,0,0,1,2.65,11H434.52q0-4.78-2-7.29a7.14,7.14,0,0,0-5.88-2.51,7.37,7.37,0,0,0-5.62,2.13,8,8,0,0,0-2,5.74,7.07,7.07,0,0,0,2.25,5.09q2.25,2.27,8,4.71,10,3.61,14.51,8.86t4.52,13.36q0,8.91-5.67,13.92t-15.42,5a26.56,26.56,0,0,1-12-2.72,20.39,20.39,0,0,1-8.51-7.78,22.6,22.6,0,0,1-3.07-12h13.83q0,5.91,2.3,8.58t7.5,2.67Q434.34,225.86,434.34,218.22Z" transform="translate(-15.46 -166.94)"/><path class="cls-1" d="M492.6,206.59H471.13v18.09h25.41v11.44H457.35V167.88h39.09v11.48H471.13v16.13H492.6v11.11Z" transform="translate(-15.46 -166.94)"/><polygon class="cls-1" points="303.56 57.75 303.56 39.66 325.03 39.66 325.03 28.55 303.56 28.55 303.56 12.42 328.88 12.42 328.88 0.94 289.78 0.94 283.36 0.94 263.67 69.19 289.78 69.19 328.97 69.19 328.97 57.75 303.56 57.75"/><polygon class="cls-1" points="245.06 0.94 256.5 50.44 267.98 0.94 245.06 0.94"/><path class="cls-1" d="M227.38,167.88v1h0v-1H197.52v68.25H211.3V211.19h6.84l10.27,24.94h36.38l-19.55-68.25H227.38ZM225.32,197a7.25,7.25,0,0,1-6.19,2.74H211.3V179.36h8.06q8,0,8,10.27A11.91,11.91,0,0,1,225.32,197Z" transform="translate(-15.46 -166.94)"/></g><path class="cls-2" d="M15.46,257.3v-9.8h23l4.9,9.8H15.46Zm0,35.17v-32H28.39v32H15.46Zm30.67,0L30,260.43H44.85l11.24,22.32,11.16-22.32H82.1L66,292.47H46.13ZM68.85,257.3l4.9-9.8h23v9.8H68.85Zm14.93,3.13H96.71v32H83.79v-32Z" transform="translate(-15.46 -166.94)"/><path class="cls-2" d="M104.58,257.3q1.44-8.11,12.85-9.8h35.49q11.4,1.69,12.85,9.8H104.58Zm48.33,35.17H117.43q-11.4-1.28-12.85-9.63v-22.4h13.25a7.45,7.45,0,0,0-.4,2.65v14.21q0,5.38,6.26,5.38h23q6.26,0,6.26-5.38V263.08a7.08,7.08,0,0,0-.48-2.65h13.33v22.4Q164.31,291.18,152.91,292.47Z" transform="translate(-15.46 -166.94)"/><path class="cls-2" d="M173.63,247.51H222q11.4,1.69,12.85,9.8H173.63v-9.8Zm0,12.93h12.93v32H173.63v-32Zm48.33,32h-27.7l7-9.79H215.7q6.26,0,6.26-5.38V263.08a7.08,7.08,0,0,0-.48-2.65H234.8v22.4Q233.36,291.18,222,292.47Z" transform="translate(-15.46 -166.94)"/><path class="cls-2" d="M242.67,247.51H291q11.4,1.69,12.85,9.8H242.67v-9.8Zm0,12.93H255.6v32H242.67v-32ZM291,279.78h-27.7l7-9.79h14.45q6.26,0,6.26-5.38v-1.53a7.07,7.07,0,0,0-.48-2.65h13.33v9.72Q302.41,278.5,291,279.78Z" transform="translate(-15.46 -166.94)"/><path class="cls-2" d="M301.84,292.47l15.9-32h15l-11,22.24h22.56l-7,9.79H301.84Zm42.71-45,4.82,9.8H319.27l4.9-9.8h20.39Zm-8.67,12.93H351l15.9,32H351.78Z" transform="translate(-15.46 -166.94)"/><path class="cls-2" d="M383.58,247.51h43.92v9.8H370.73Q372.18,249.19,383.58,247.51Zm0,29.79q0,5.38,6.26,5.38h37.66l-6.91,9.79h-37q-11.4-1.28-12.85-9.63v-22.4H384a7.46,7.46,0,0,0-.4,2.65v14.21Z" transform="translate(-15.46 -166.94)"/><path class="cls-2" d="M448.29,247.51v9.8H435.36v-9.8h12.93Zm-12.93,45v-32h12.93v7.47l4.26-5.86H475l0.72-1.61h14.77l-1.36,3a13.65,13.65,0,0,1,4.9,3.25,9.82,9.82,0,0,1,2.49,5v20.79H483.7V277.21q0-5.38-6.26-5.38H448.29v20.63H435.36ZM492,257.3H477.27l4.82-9.8h14.37Z" transform="translate(-15.46 -166.94)"/><text x="-15.46" y="-166.94"/></svg>